#
#
#

mtllib pokeballred.mtl


#
#  Mesh Mesh
#
g  Mesh Mesh

v -1.392157 0.261736 0.292089
v -0.340218 0.261736 0.092373
v -1.407214 0.261736 0.092373
v -1.268993 0.261736 0.643567
v -1.059056 0.261736 0.951189
v -0.776654 0.261736 1.193995
v -0.441031 0.261736 1.355436
v -0.075060 0.261736 1.424513
v -0.304587 0.261736 0.178395
v -0.247906 0.261736 0.252260
v -0.174038 0.261736 0.308944
v -0.088018 0.261736 0.344574
v 0.004294 0.261736 0.356727
v 0.296320 0.261736 1.396515
v 0.096604 0.261736 0.344574
v 0.182626 0.261736 0.308944
v 0.256496 0.261736 0.252260
v 0.313175 0.261736 0.178395
v 0.647798 0.261736 1.273350
v 0.348805 0.261736 0.092373
v 1.426298 0.261736 0.092373
v 0.955419 0.261736 1.063411
v 1.198226 0.261736 0.781010
v 1.359667 0.261736 0.445386
vn 0.000000 1.000000 0.000000
vt 0.000000 0.000000
f 1/1/1 2/1/1 3/1/1
f 2/1/1 1/1/1 4/1/1
f 2/1/1 4/1/1 5/1/1
f 2/1/1 5/1/1 6/1/1
f 2/1/1 6/1/1 7/1/1
f 2/1/1 7/1/1 8/1/1
f 2/1/1 8/1/1 9/1/1
f 9/1/1 8/1/1 10/1/1
f 10/1/1 8/1/1 11/1/1
f 11/1/1 8/1/1 12/1/1
f 12/1/1 8/1/1 13/1/1
f 13/1/1 8/1/1 14/1/1
f 13/1/1 14/1/1 15/1/1
f 15/1/1 14/1/1 16/1/1
f 16/1/1 14/1/1 17/1/1
f 17/1/1 14/1/1 18/1/1
f 18/1/1 14/1/1 19/1/1
f 18/1/1 19/1/1 20/1/1
f 20/1/1 19/1/1 21/1/1
f 21/1/1 19/1/1 22/1/1
f 21/1/1 22/1/1 23/1/1
f 21/1/1 23/1/1 24/1/1
